<svg aria-hidden="true" style="position: absolute; width: 0; height: 0; overflow: hidden;" version="1.1" xmlns="http://www.w3.org/2000/svg" xmlns:xlink="http://www.w3.org/1999/xlink">
  <defs>
    <symbol id="icon-question" viewBox="0 0 32 32">
      <path d="M16.116 8.659c-1.355 0-2.487 0.473-3.392 1.242s-1.435 1.393-1.588 3.275h2.764c0.060-0.941 0.285-1.159 0.674-1.516s0.872-0.582 1.45-0.582c0.579 0 1.050 0.164 1.416 0.537s0.549 0.83 0.549 1.393-0.176 1.030-0.525 1.411l-1.668 1.665c-0.488 0.488-0.589 0.879-0.734 1.176s-0.003 0.747-0.003 1.356v1.148h1.882v-0.783c0-0.608 0.272-1.080 0.547-1.416 0.105-0.121 0.313-0.27 0.49-0.445 0.175-0.176 0.422-0.381 0.673-0.617s0.471-0.43 0.623-0.583c0.152-0.152 0.38-0.411 0.67-0.776 0.502-0.609 0.758-1.37 0.758-2.284 0-1.325-0.424-2.356-1.276-3.096-0.855-0.737-1.955-1.106-3.31-1.106z"></path>
      <path d="M15.944 20.842c-0.48 0-0.89 0.168-1.234 0.503s-0.514 0.734-0.514 1.199c0 0.464 0.175 0.86 0.525 1.188s0.765 0.49 1.244 0.49c0.48 0 0.891-0.168 1.234-0.502s0.514-0.735 0.514-1.199-0.176-0.86-0.526-1.189c-0.348-0.328-0.763-0.49-1.243-0.49z"></path>
      <path d="M16 0c-8.837 0-16 7.163-16 16s7.163 16 16 16 16-7.163 16-16-7.163-16-16-16zM16 29.176c-7.277 0-13.176-5.899-13.176-13.176s5.899-13.176 13.176-13.176c7.277 0 13.176 5.899 13.176 13.176s-5.899 13.176-13.176 13.176z"></path>
    </symbol>
    <symbol id="icon-share" viewBox="0 0 24 24">
      <path d="M1 8v16h16v-16h-4.5v1h3.5v14h-14v-14h3.5v-1h-4.5zM5.464 5.954l-0.707-0.707 4.243-4.243 4.243 4.243-0.707 0.707-3.037-3.037v13.083h-0.998v-13.081l-3.036 3.036z"></path>
    </symbol>
    <symbol id="icon-arrow-down" viewBox="0 0 32 32">
      <path class="arrow-shape" d="M16 31l15-15h-9v-16h-12v16h-9z"></path>
    </symbol>
  </defs>
</svg>
